<svg xmlns="http://www.w3.org/2000/svg" width="2048" height="2048" viewBox="0 0 2048 2048">
  <defs>
    <style>
      .brake {
        fill: #fff;
      }
    </style>
  </defs>
  <path id="brake" class="brake" d="M1089.58,131.17q-38.31,0-75.87,3v199.1a91.81,91.81,0,0,1-86.61,91.61A532.62,532.62,0,0,0,424.85,927.1a91.8,91.8,0,0,1-91.61,86.6H134.14q-2.94,37.56-3,75.88c0,529.33,429.09,958.42,958.41,958.42S2048,1618.9,2048,1089.59,1618.9,131.17,1089.58,131.17Zm411.53,1369.94C1391.19,1611,1245,1671.57,1089.58,1671.57S788,1611,678.05,1501.11,507.59,1245,507.59,1089.58,568.13,788,678.05,678.05s256.07-170.46,411.53-170.46,301.61,60.54,411.53,170.46,170.46,256.07,170.46,411.53S1611,1391.19,1501.11,1501.11Z" transform="translate(0)"/>
  <path class="brake" d="M1089.58,619.52c-259.19,0-470.07,210.87-470.07,470.06s210.88,470.07,470.07,470.07,470.07-210.87,470.07-470.07S1348.78,619.52,1089.58,619.52Zm0,101.57A52.62,52.62,0,1,1,1037,773.71,52.62,52.62,0,0,1,1089.58,721.09Zm-319,424.23a52.62,52.62,0,1,1,52.61-52.62A52.62,52.62,0,0,1,770.59,1145.32Zm319,319a52.62,52.62,0,1,1,52.62-52.62A52.61,52.61,0,0,1,1089.58,1464.32Zm0-206.78a168,168,0,1,1,168-168A168,168,0,0,1,1089.58,1257.54Zm371.61-164.84a52.62,52.62,0,1,1-52.61-52.61A52.61,52.61,0,0,1,1461.19,1092.7Z" transform="translate(0)"/>
  <path class="brake" d="M35.82,957.75H333.24A35.8,35.8,0,0,0,369,924c8.12-144.81,68.39-279.82,171.77-383.2S779.15,377.1,924,369a35.8,35.8,0,0,0,33.79-35.74V35.82A35.76,35.76,0,0,0,922.16,0L920.8,0C420.86,19,19,420.86,0,920.8A35.74,35.74,0,0,0,35.82,957.75Z" transform="translate(0)"/>
  </svg>