<svg xmlns="http://www.w3.org/2000/svg" width="2048" height="2048" viewBox="0 0 2048 2048">
  <defs>
    <style>
      .pressure {
        fill: #fff;
        fill-rule: evenodd;
      }
    </style>
  </defs>
  <path id="pressure" class="pressure" d="M1090.78,1513.74H957.22a66.785,66.785,0,0,0,0,133.57h133.56A66.785,66.785,0,1,0,1090.78,1513.74ZM1024,934.956A89.042,89.042,0,1,0,1113.04,1024,89.149,89.149,0,0,0,1024,934.956ZM1024,0C459.348,0,0,459.372,0,1024S459.348,2048,1024,2048s1024-459.37,1024-1024S1588.65,0,1024,0Zm66.78,1780.87H957.22c-110.476,0-200.348-89.87-200.348-200.35s89.872-200.35,200.348-200.35h133.56c110.48,0,200.35,89.87,200.35,200.35S1201.26,1780.87,1090.78,1780.87Zm468.39-221.7a66.747,66.747,0,0,1-94.43,0l-94.44-94.43a66.779,66.779,0,0,1,94.44-94.44l44.74,44.72c75.18-93.09,121-204.96,133.59-324.24h-62.55a66.786,66.786,0,0,1,0-133.572h62.76A616.673,616.673,0,0,0,1509.3,633.124l-288.69,288.7c16.05,30.748,26,65.152,26,102.17,0,122.74-99.87,222.61-222.61,222.61s-222.608-99.87-222.608-222.61S901.264,801.384,1024,801.384c37.02,0,71.42,9.948,102.17,26l288.7-288.7A616.865,616.865,0,0,0,1090.78,404.7v62.764a66.784,66.784,0,1,1-133.568,0V404.7a616.86,616.86,0,0,0-324.088,133.98l44.568,44.56A66.775,66.775,0,1,1,583.26,677.68l-44.568-44.56A616.83,616.83,0,0,0,404.708,957.208h62.764a66.786,66.786,0,0,1,0,133.572H404.92c12.6,119.28,58.412,231.15,133.6,324.24l44.74-44.72a66.778,66.778,0,0,1,94.436,94.44l-94.436,94.43a66.754,66.754,0,0,1-94.436,0c-293.328-293.33-297.544-772.8,0-1070.346,295.2-295.244,775.29-295.1,1070.35,0C1852.57,782.22,1856.64,1261.71,1559.17,1559.17Z"/>
</svg>
